<svg xmlns="http://www.w3.org/2000/svg" xmlns:xlink="http://www.w3.org/1999/xlink" viewBox="0 0 493.93 309.49"><defs><style>.cls-1{fill:none;}.cls-2{isolation:isolate;}.cls-3{fill:#e6f7ff;}.cls-4{fill:#0852de;}.cls-5{fill:#1f62e1;}.cls-108,.cls-13,.cls-21,.cls-6{mix-blend-mode:multiply;}.cls-6{opacity:0.2;}.cls-7{fill:#e0eafb;}.cls-8{fill:#3b75e5;}.cls-9{fill:#9cb9f2;}.cls-10{fill:#00d981;}.cls-11{fill:#3297f5;}.cls-12{fill:#ebf9ff;}.cls-13{opacity:0.15;}.cls-14{fill:#2db4ff;}.cls-15{fill:#004cdd;}.cls-16{fill:#3874e5;}.cls-17{fill:#427be6;}.cls-18{fill:#b0c8f5;}.cls-19{fill:#0a54df;}.cls-20{fill:#4db4ff;}.cls-21{opacity:0.18;}.cls-22{fill:#007cff;}.cls-23{fill:#0063f4;}.cls-24{fill:#8bcbff;}.cls-25{opacity:0.51;}.cls-26{clip-path:url(#clip-path);}.cls-27{fill:#86c6ff;}.cls-28{fill:#87c6ff;}.cls-29{fill:#88c7ff;}.cls-30{fill:#89c7ff;}.cls-31{fill:#8ac8ff;}.cls-32{fill:#8bc8ff;}.cls-33{fill:#8cc9ff;}.cls-34{fill:#8dc9ff;}.cls-35{fill:#8ecaff;}.cls-36{fill:#8fcaff;}.cls-37{fill:#90cbff;}.cls-38{fill:#91cbff;}.cls-39{fill:#92ccff;}.cls-40{fill:#93ccff;}.cls-41{fill:#94cdff;}.cls-42{fill:#95cdff;}.cls-43{fill:#96ceff;}.cls-44{fill:#97ceff;}.cls-45{fill:#98cfff;}.cls-46{fill:#99cfff;}.cls-47{fill:#9ad0ff;}.cls-48{fill:#9bd0ff;}.cls-49{fill:#9cd1ff;}.cls-50{fill:#9dd1ff;}.cls-51{fill:#9ed2ff;}.cls-52{fill:#9fd2ff;}.cls-53{fill:#a0d3ff;}.cls-54{fill:#a1d3ff;}.cls-55{fill:#a2d4ff;}.cls-56{fill:#a3d4ff;}.cls-57{fill:#a4d5ff;}.cls-58{fill:#a5d5ff;}.cls-59{fill:#a6d6ff;}.cls-60{fill:#a7d6ff;}.cls-61{fill:#a8d7ff;}.cls-62{fill:#a9d7ff;}.cls-63{fill:#aad8ff;}.cls-64{fill:#abd8ff;}.cls-65{fill:#acd9ff;}.cls-66{fill:#add9ff;}.cls-67{fill:#afdaff;}.cls-68{fill:#b0daff;}.cls-69{fill:#b1daff;}.cls-70{fill:#b2dbff;}.cls-71{fill:#b3dbff;}.cls-72{fill:#b4dcff;}.cls-73{fill:#b5dcff;}.cls-74{fill:#b6ddff;}.cls-75{fill:#b7ddff;}.cls-76{fill:#b8deff;}.cls-77{fill:#b9deff;}.cls-78{fill:#badfff;}.cls-79{fill:#bbdfff;}.cls-80{fill:#bce0ff;}.cls-81{fill:#bde0ff;}.cls-82{fill:#bee1ff;}.cls-83{fill:#bfe1ff;}.cls-84{fill:#c0e2ff;}.cls-85{fill:#c1e2ff;}.cls-86{fill:#c2e3ff;}.cls-87{fill:#c3e3ff;}.cls-88{fill:#c4e4ff;}.cls-89{fill:#c5e4ff;}.cls-90{fill:#c6e5ff;}.cls-91{fill:#c7e5ff;}.cls-92{fill:#c8e6ff;}.cls-93{fill:#c9e6ff;}.cls-94{fill:#cae7ff;}.cls-95{fill:#cbe7ff;}.cls-96{fill:#cce8ff;}.cls-97{fill:#cde8ff;}.cls-98{fill:#cee9ff;}.cls-99{fill:#cfe9ff;}.cls-100{fill:#d0eaff;}.cls-101{fill:#d1eaff;}.cls-102{fill:#d2ebff;}.cls-103{fill:#d3ebff;}.cls-104{fill:#d4ecff;}.cls-105{fill:#d5ecff;}.cls-106{fill:#d6edff;}.cls-107{fill:#d7edff;}.cls-109{opacity:0.5;}.cls-110{opacity:0.49;}.cls-111{fill:#fff;}.cls-112{fill:#0065eb;}.cls-113{fill:#0089e4;}.cls-114{fill:#00d479;}.cls-115{fill:#00e881;}.cls-116{fill:#00c06e;}.cls-117{fill:#00b25d;}.cls-118{opacity:0.3;}.cls-119{fill:#fcbb00;}.cls-120{fill:#ffda00;}.cls-121{fill:#47a1ff;}.cls-122{fill:#67b3ff;}.cls-123{fill:#00de77;}.cls-124{fill:#fffefc;}</style><clipPath id="clip-path"><path class="cls-1" d="M222.29,262.21c-5.39,5.24-20.67,10.38-46.17,10.38s-40.39-3.06-46.17-10.38V183.05a46.17,46.17,0,1,1,92.34,0v79.16Z"></path></clipPath></defs><g class="cls-2"><g id="Layer_1"><path class="cls-3" d="M462.62,263.39a8.41,8.41,0,0,0-8.27-6.91H11.65a8.4,8.4,0,0,0-8.41,8.41h0a8.4,8.4,0,0,0,8.41,8.41H126.79c-8.47,2.23-13.53,5-13.53,8.1,0,7.21,28,13.05,62.6,13.05a246.11,246.11,0,0,0,38.84-2.82c5.82,3.28,24.46-14.29,21.11-14-2.3-1.6-6-3.06-10.87-4.34H401.82c-.28,1.07,36.05.53,37.2.53C465.29,273.83,462.62,263.39,462.62,263.39Z"></path><rect class="cls-4" x="167.16" y="117.71" width="15.56" height="120.03" transform="translate(352.67 2.78) rotate(90)"></rect><rect class="cls-5" x="149.47" y="173.27" width="15.56" height="8.9" transform="translate(334.97 20.48) rotate(90)"></rect><rect class="cls-5" x="164.12" y="173.27" width="15.56" height="8.9" transform="translate(349.63 5.82) rotate(90)"></rect><g class="cls-6"><polygon class="cls-5" points="114.93 169.94 234.96 169.94 234.96 175.31 114.93 169.94"></polygon></g><rect class="cls-7" x="83.83" y="148.74" width="13.31" height="58.05" transform="translate(-87.28 268.25) rotate(-90)"></rect><path class="cls-8" d="M118.14,175h8.36a3.56,3.56,0,0,1,3.56,3.56v2.06a0,0,0,0,1,0,0H114.58a0,0,0,0,1,0,0v-2.06A3.56,3.56,0,0,1,118.14,175Z" transform="translate(300.09 55.44) rotate(90)"></path><path class="cls-4" d="M116.51,175h8.36a3.56,3.56,0,0,1,3.56,3.56v2.06a0,0,0,0,1,0,0H112.94a0,0,0,0,1,0,0v-2.06A3.56,3.56,0,0,1,116.51,175Z" transform="translate(298.45 57.08) rotate(90)"></path><path class="cls-4" d="M85.87,140.19H88a0,0,0,0,1,0,0V201A1.06,1.06,0,0,1,87,202h-.06A1.06,1.06,0,0,1,85.87,201V140.19A0,0,0,0,1,85.87,140.19Z" transform="translate(258.06 84.15) rotate(90)"></path><path class="cls-4" d="M85.87,153.5H88a0,0,0,0,1,0,0v60.79A1.06,1.06,0,0,1,87,215.34h-.06a1.06,1.06,0,0,1-1.06-1.06V153.5A0,0,0,0,1,85.87,153.5Z" transform="translate(271.37 97.46) rotate(90)"></path><rect class="cls-9" x="89.52" y="151.85" width="0.29" height="56.42" transform="translate(269.73 90.39) rotate(90)"></rect><rect class="cls-9" x="89.52" y="149.6" width="0.29" height="56.42" transform="translate(267.48 88.14) rotate(90)"></rect><rect class="cls-9" x="89.52" y="147.35" width="0.29" height="56.42" transform="translate(265.23 85.89) rotate(90)"></rect><rect class="cls-9" x="89.52" y="152.98" width="0.29" height="56.42" transform="translate(270.86 91.52) rotate(90)"></rect><rect class="cls-9" x="89.52" y="154.11" width="0.29" height="56.42" transform="translate(271.98 92.65) rotate(90)"></rect><rect class="cls-9" x="89.52" y="150.73" width="0.29" height="56.42" transform="translate(268.6 89.27) rotate(90)"></rect><rect class="cls-9" x="89.52" y="148.48" width="0.29" height="56.42" transform="translate(266.35 87.02) rotate(90)"></rect><rect class="cls-9" x="89.52" y="146.22" width="0.29" height="56.42" transform="translate(264.1 84.76) rotate(90)"></rect><rect class="cls-9" x="89.52" y="145.1" width="0.29" height="56.42" transform="translate(262.97 83.64) rotate(90)"></rect><rect class="cls-3" x="62.3" y="194.92" width="20.39" height="54.31" transform="translate(-149.58 294.58) rotate(-90)"></rect><rect class="cls-10" x="140.99" y="164.22" width="24.56" height="115.7" transform="translate(375.35 68.81) rotate(90)"></rect><path class="cls-10" d="M89.2,220h16.67a3.94,3.94,0,0,1,3.94,3.94v.3a0,0,0,0,1,0,0H85.26a0,0,0,0,1,0,0v-.3A3.94,3.94,0,0,1,89.2,220Z" transform="translate(319.62 124.54) rotate(90)"></path><path class="cls-10" d="M66.25,184.8h4.16a0,0,0,0,1,0,0V236.9A2.06,2.06,0,0,1,68.35,239h0a2.06,2.06,0,0,1-2.06-2.06V184.8a0,0,0,0,1,0,0Z" transform="translate(280.21 143.55) rotate(90)"></path><path class="cls-10" d="M66.25,205.19h4.16a0,0,0,0,1,0,0V257.3a2.06,2.06,0,0,1-2.06,2.06h0a2.06,2.06,0,0,1-2.06-2.06V205.19A0,0,0,0,1,66.25,205.19Z" transform="translate(300.61 163.94) rotate(90)"></path><rect class="cls-11" x="70.1" y="203.04" width="0.56" height="50.07" transform="translate(298.46 157.69) rotate(90)"></rect><rect class="cls-11" x="70.1" y="200.04" width="0.56" height="50.07" transform="translate(295.46 154.69) rotate(90)"></rect><rect class="cls-11" x="70.1" y="197.04" width="0.56" height="50.07" transform="translate(292.46 151.7) rotate(90)"></rect><rect class="cls-11" x="70.1" y="194.04" width="0.56" height="50.07" transform="translate(289.46 148.7) rotate(90)"></rect><rect class="cls-11" x="70.1" y="191.04" width="0.56" height="50.07" transform="translate(286.46 145.7) rotate(90)"></rect><rect class="cls-10" x="106.17" y="218.79" width="24.56" height="6.58" transform="translate(340.52 103.63) rotate(90)"></rect><rect class="cls-10" x="122.29" y="213.51" width="24.56" height="17.13" transform="translate(356.64 87.51) rotate(90)"></rect><rect class="cls-11" x="150.96" y="137.46" width="24.41" height="120.96" transform="translate(-34.78 361.1) rotate(-90)"></rect><rect class="cls-11" x="166.79" y="196.64" width="24.41" height="2.61" transform="translate(-18.95 376.93) rotate(-90)"></rect><rect class="cls-11" x="174.31" y="196.64" width="24.41" height="2.61" transform="translate(-11.42 384.46) rotate(-90)"></rect><rect class="cls-11" x="124.4" y="196.64" width="24.41" height="2.61" transform="translate(-61.33 334.55) rotate(-90)"></rect><ellipse class="cls-11" cx="157.56" cy="197.98" rx="11.11" ry="8.08"></ellipse><rect class="cls-12" x="67.72" y="172.94" width="21.2" height="49.58" transform="translate(-119.41 276.05) rotate(-90)"></rect><path class="cls-11" d="M95.55,196.24h18.7a2.81,2.81,0,0,1,2.81,2.81v.77a0,0,0,0,1,0,0H92.74a0,0,0,0,1,0,0v-.77A2.81,2.81,0,0,1,95.55,196.24Z" transform="translate(302.93 93.13) rotate(90)"></path><path class="cls-11" d="M94.51,196.24h18.7a2.81,2.81,0,0,1,2.81,2.81v.77a0,0,0,0,1,0,0H91.7a0,0,0,0,1,0,0v-.77a2.81,2.81,0,0,1,2.81-2.81Z" transform="translate(301.89 94.18) rotate(90)"></path><path class="cls-11" d="M74.82,161.13h2.51a0,0,0,0,1,0,0v50.74a1.25,1.25,0,0,1-1.25,1.25h0a1.25,1.25,0,0,1-1.25-1.25V161.13A0,0,0,0,1,74.82,161.13Z" transform="translate(263.2 111.05) rotate(90)"></path><path class="cls-11" d="M74.82,182.89h2.51a0,0,0,0,1,0,0v50.74a1.25,1.25,0,0,1-1.25,1.25h0a1.25,1.25,0,0,1-1.25-1.25V182.89A0,0,0,0,1,74.82,182.89Z" transform="translate(284.96 132.81) rotate(90)"></path><rect class="cls-11" x="77.63" y="178.06" width="0.34" height="48.54" transform="translate(280.13 124.53) rotate(90)"></rect><rect class="cls-11" x="77.63" y="173.86" width="0.34" height="48.54" transform="translate(275.93 120.33) rotate(90)"></rect><rect class="cls-11" x="77.63" y="169.67" width="0.34" height="48.54" transform="translate(271.74 116.14) rotate(90)"></rect><rect class="cls-11" x="77.63" y="180.15" width="0.34" height="48.54" transform="translate(282.22 126.62) rotate(90)"></rect><rect class="cls-11" x="77.63" y="182.25" width="0.34" height="48.54" transform="translate(284.32 128.72) rotate(90)"></rect><rect class="cls-11" x="77.63" y="175.96" width="0.34" height="48.54" transform="translate(278.03 122.43) rotate(90)"></rect><rect class="cls-11" x="77.63" y="171.77" width="0.34" height="48.54" transform="translate(273.84 118.24) rotate(90)"></rect><rect class="cls-11" x="77.63" y="167.57" width="0.34" height="48.54" transform="translate(269.64 114.04) rotate(90)"></rect><rect class="cls-11" x="77.63" y="165.48" width="0.34" height="48.54" transform="translate(267.55 111.95) rotate(90)"></rect><g class="cls-13"><polygon class="cls-14" points="118.13 185.74 223.64 185.74 223.64 210.14 118.13 185.74"></polygon></g><rect class="cls-15" x="142.84" y="173.3" width="29.6" height="151.72" transform="translate(406.8 91.51) rotate(90)"></rect><rect class="cls-16" x="202.5" y="239.92" width="17.25" height="17.75" rx="2.1" transform="translate(459.92 37.67) rotate(90)"></rect><g class="cls-13"><polygon class="cls-15" points="95.79 234.35 233.5 234.35 233.5 249.26 95.79 234.35"></polygon></g><rect class="cls-17" x="183.63" y="235.54" width="4.35" height="21.46" transform="translate(432.08 60.46) rotate(90)"></rect><rect class="cls-17" x="165.51" y="224.51" width="4.15" height="57.92" transform="translate(421.05 85.89) rotate(90)"></rect><rect class="cls-18" x="40.89" y="219.74" width="25.44" height="58.82" transform="translate(-195.55 302.76) rotate(-90)"></rect><path class="cls-8" d="M74.28,247H96A3.94,3.94,0,0,1,99.94,251v.3a0,0,0,0,1,0,0H70.34a0,0,0,0,1,0,0V251A3.94,3.94,0,0,1,74.28,247Z" transform="translate(334.3 164.01) rotate(90)"></path><path class="cls-19" d="M73,247H94.76A3.94,3.94,0,0,1,98.71,251v.3a0,0,0,0,1,0,0H69.11a0,0,0,0,1,0,0V251A3.94,3.94,0,0,1,73,247Z" transform="translate(333.06 165.25) rotate(90)"></path><path class="cls-19" d="M48.86,205.59H53a0,0,0,0,1,0,0v59.62A2.06,2.06,0,0,1,51,267.28h0a2.06,2.06,0,0,1-2.06-2.06V205.59a0,0,0,0,1,0,0Z" transform="translate(287.38 185.49) rotate(90)"></path><path class="cls-19" d="M48.86,231H53a0,0,0,0,1,0,0v59.62A2.06,2.06,0,0,1,51,292.71h0a2.06,2.06,0,0,1-2.06-2.06V231A0,0,0,0,1,48.86,231Z" transform="translate(312.82 210.93) rotate(90)"></path><rect class="cls-9" x="52.71" y="224.76" width="0.56" height="57.59" transform="translate(306.54 200.56) rotate(90)"></rect><rect class="cls-9" x="52.71" y="220.45" width="0.56" height="57.59" transform="translate(302.24 196.25) rotate(90)"></rect><rect class="cls-9" x="52.71" y="216.15" width="0.56" height="57.59" transform="translate(297.93 191.95) rotate(90)"></rect><rect class="cls-9" x="52.71" y="226.91" width="0.56" height="57.59" transform="translate(308.69 202.71) rotate(90)"></rect><rect class="cls-9" x="52.71" y="229.06" width="0.56" height="57.59" transform="translate(310.85 204.86) rotate(90)"></rect><rect class="cls-9" x="52.71" y="222.6" width="0.56" height="57.59" transform="translate(304.39 198.41) rotate(90)"></rect><rect class="cls-9" x="52.71" y="218.3" width="0.56" height="57.59" transform="translate(300.08 194.1) rotate(90)"></rect><rect class="cls-9" x="52.71" y="213.99" width="0.56" height="57.59" transform="translate(295.78 189.8) rotate(90)"></rect><rect class="cls-9" x="52.71" y="211.84" width="0.56" height="57.59" transform="translate(293.63 187.64) rotate(90)"></rect><polygon class="cls-20" points="367.98 251.14 305.53 251.14 309.11 224.27 364.92 224.27 367.98 251.14"></polygon><g class="cls-21"><polygon class="cls-22" points="367.41 246.13 308.17 231.27 309.11 224.27 364.92 224.27 367.41 246.13"></polygon></g><path class="cls-20" d="M206.12,88.15H465.29a0,0,0,0,1,0,0V222.31a4.95,4.95,0,0,1-4.95,4.95H211.06a4.95,4.95,0,0,1-4.95-4.95V88.15A0,0,0,0,1,206.12,88.15Z"></path><path class="cls-20" d="M211,58.16H460.32a4.95,4.95,0,0,1,4.95,4.95V197.28a0,0,0,0,1,0,0H206.1a0,0,0,0,1,0,0V63.11A4.95,4.95,0,0,1,211,58.16Z"></path><rect class="cls-23" x="213.86" y="64.92" width="245.45" height="125.4"></rect><polygon class="cls-22" points="305.53 251.14 367.98 251.14 382.56 256.97 290.96 257.03 305.53 251.14"></polygon><path class="cls-20" d="M379.44,262.72H294.08a2.81,2.81,0,0,1-2.8-2.54L291,257l91.58-.06-.33,3.22A2.8,2.8,0,0,1,379.44,262.72Z"></path><path class="cls-24" d="M341.14,213.85a4.38,4.38,0,1,1-4.38-4.39A4.38,4.38,0,0,1,341.14,213.85Z"></path><g class="cls-25"><g class="cls-26"><rect class="cls-27" x="129.95" y="136.88" width="0.17" height="135.7"></rect><rect class="cls-27" x="130.12" y="136.88" width="0.57" height="135.7"></rect><rect class="cls-28" x="130.69" y="136.88" width="0.57" height="135.7"></rect><rect class="cls-29" x="131.27" y="136.88" width="0.57" height="135.7"></rect><rect class="cls-30" x="131.84" y="136.88" width="0.57" height="135.7"></rect><rect class="cls-31" x="132.42" y="136.88" width="0.57" height="135.7"></rect><rect class="cls-32" x="132.99" y="136.88" width="0.57" height="135.7"></rect><rect class="cls-33" x="133.56" y="136.88" width="0.57" height="135.7"></rect><rect class="cls-34" x="134.14" y="136.88" width="0.57" height="135.7"></rect><rect class="cls-35" x="134.71" y="136.88" width="0.57" height="135.7"></rect><rect class="cls-36" x="135.29" y="136.88" width="0.57" height="135.7"></rect><rect class="cls-37" x="135.86" y="136.88" width="0.57" height="135.7"></rect><rect class="cls-38" x="136.43" y="136.88" width="0.57" height="135.7"></rect><rect class="cls-39" x="137.01" y="136.88" width="0.57" height="135.7"></rect><rect class="cls-40" x="137.58" y="136.88" width="0.57" height="135.7"></rect><rect class="cls-41" x="138.16" y="136.88" width="0.57" height="135.7"></rect><rect class="cls-42" x="138.73" y="136.88" width="0.57" height="135.7"></rect><rect class="cls-43" x="139.3" y="136.88" width="0.57" height="135.7"></rect><rect class="cls-44" x="139.88" y="136.88" width="0.57" height="135.7"></rect><rect class="cls-45" x="140.45" y="136.88" width="0.57" height="135.7"></rect><rect class="cls-46" x="141.03" y="136.88" width="0.57" height="135.7"></rect><rect class="cls-47" x="141.6" y="136.88" width="0.57" height="135.7"></rect><rect class="cls-48" x="142.17" y="136.88" width="0.57" height="135.7"></rect><rect class="cls-49" x="142.75" y="136.88" width="0.57" height="135.7"></rect><rect class="cls-50" x="143.32" y="136.88" width="0.57" height="135.7"></rect><rect class="cls-51" x="143.9" y="136.88" width="0.57" height="135.7"></rect><rect class="cls-52" x="144.47" y="136.88" width="0.57" height="135.7"></rect><rect class="cls-53" x="145.04" y="136.88" width="0.57" height="135.7"></rect><rect class="cls-54" x="145.62" y="136.88" width="0.57" height="135.7"></rect><rect class="cls-55" x="146.19" y="136.88" width="0.57" height="135.7"></rect><rect class="cls-56" x="146.77" y="136.88" width="0.57" height="135.7"></rect><rect class="cls-57" x="147.34" y="136.88" width="0.57" height="135.7"></rect><rect class="cls-58" x="147.91" y="136.88" width="0.57" height="135.7"></rect><rect class="cls-59" x="148.49" y="136.88" width="0.57" height="135.7"></rect><rect class="cls-60" x="149.06" y="136.88" width="0.57" height="135.7"></rect><rect class="cls-61" x="149.64" y="136.88" width="0.57" height="135.7"></rect><rect class="cls-62" x="150.21" y="136.88" width="0.57" height="135.7"></rect><rect class="cls-63" x="150.78" y="136.88" width="0.57" height="135.7"></rect><rect class="cls-64" x="151.36" y="136.88" width="0.57" height="135.7"></rect><rect class="cls-65" x="151.93" y="136.88" width="0.57" height="135.7"></rect><rect class="cls-66" x="152.51" y="136.88" width="0.57" height="135.7"></rect><rect class="cls-67" x="153.08" y="136.88" width="0.57" height="135.7"></rect><rect class="cls-68" x="153.65" y="136.88" width="0.57" height="135.7"></rect><rect class="cls-69" x="154.23" y="136.88" width="0.57" height="135.7"></rect><rect class="cls-70" x="154.8" y="136.88" width="0.57" height="135.7"></rect><rect class="cls-71" x="155.38" y="136.88" width="0.57" height="135.7"></rect><rect class="cls-72" x="155.95" y="136.88" width="0.57" height="135.7"></rect><rect class="cls-73" x="156.52" y="136.88" width="0.57" height="135.7"></rect><rect class="cls-74" x="157.1" y="136.88" width="0.57" height="135.7"></rect><rect class="cls-75" x="157.67" y="136.88" width="0.57" height="135.7"></rect><rect class="cls-76" x="158.25" y="136.88" width="0.57" height="135.7"></rect><rect class="cls-77" x="158.82" y="136.88" width="0.57" height="135.7"></rect><rect class="cls-78" x="159.39" y="136.88" width="0.57" height="135.7"></rect><rect class="cls-79" x="159.97" y="136.88" width="0.57" height="135.7"></rect><rect class="cls-80" x="160.54" y="136.88" width="0.57" height="135.7"></rect><rect class="cls-81" x="161.12" y="136.88" width="0.57" height="135.7"></rect><rect class="cls-82" x="161.69" y="136.88" width="0.57" height="135.7"></rect><rect class="cls-83" x="162.26" y="136.88" width="0.57" height="135.7"></rect><rect class="cls-84" x="162.84" y="136.88" width="0.57" height="135.7"></rect><rect class="cls-85" x="163.41" y="136.88" width="0.57" height="135.7"></rect><rect class="cls-86" x="163.99" y="136.88" width="0.57" height="135.7"></rect><rect class="cls-87" x="164.56" y="136.88" width="0.57" height="135.7"></rect><rect class="cls-88" x="165.13" y="136.88" width="0.57" height="135.7"></rect><rect class="cls-89" x="165.71" y="136.88" width="0.57" height="135.7"></rect><rect class="cls-90" x="166.28" y="136.88" width="0.57" height="135.7"></rect><rect class="cls-91" x="166.86" y="136.88" width="0.57" height="135.7"></rect><rect class="cls-92" x="167.43" y="136.88" width="0.57" height="135.7"></rect><rect class="cls-93" x="168.01" y="136.88" width="0.57" height="135.7"></rect><rect class="cls-94" x="168.58" y="136.88" width="0.57" height="135.7"></rect><rect class="cls-95" x="169.15" y="136.88" width="0.57" height="135.7"></rect><rect class="cls-96" x="169.73" y="136.88" width="0.57" height="135.7"></rect><rect class="cls-97" x="170.3" y="136.88" width="0.57" height="135.7"></rect><rect class="cls-98" x="170.88" y="136.88" width="0.57" height="135.7"></rect><rect class="cls-99" x="171.45" y="136.88" width="0.57" height="135.7"></rect><rect class="cls-100" x="172.02" y="136.88" width="0.57" height="135.7"></rect><rect class="cls-101" x="172.6" y="136.88" width="0.57" height="135.7"></rect><rect class="cls-102" x="173.17" y="136.88" width="0.57" height="135.7"></rect><rect class="cls-103" x="173.75" y="136.88" width="0.57" height="135.7"></rect><rect class="cls-104" x="174.32" y="136.88" width="0.57" height="135.7"></rect><rect class="cls-105" x="174.89" y="136.88" width="0.57" height="135.7"></rect><rect class="cls-106" x="175.47" y="136.88" width="0.57" height="135.7"></rect><rect class="cls-107" x="176.04" y="136.88" width="0.57" height="135.7"></rect><rect class="cls-107" x="176.62" y="136.88" width="0.56" height="135.7"></rect><rect class="cls-106" x="177.18" y="136.88" width="0.56" height="135.7"></rect><rect class="cls-105" x="177.74" y="136.88" width="0.56" height="135.7"></rect><rect class="cls-104" x="178.31" y="136.88" width="0.56" height="135.7"></rect><rect class="cls-103" x="178.87" y="136.88" width="0.56" height="135.7"></rect><rect class="cls-102" x="179.43" y="136.88" width="0.56" height="135.7"></rect><rect class="cls-101" x="180" y="136.88" width="0.56" height="135.7"></rect><rect class="cls-100" x="180.56" y="136.88" width="0.56" height="135.7"></rect><rect class="cls-99" x="181.13" y="136.88" width="0.56" height="135.7"></rect><rect class="cls-98" x="181.69" y="136.88" width="0.56" height="135.7"></rect><rect class="cls-97" x="182.25" y="136.88" width="0.56" height="135.7"></rect><rect class="cls-96" x="182.82" y="136.88" width="0.56" height="135.7"></rect><rect class="cls-95" x="183.38" y="136.88" width="0.56" height="135.7"></rect><rect class="cls-94" x="183.95" y="136.88" width="0.56" height="135.7"></rect><rect class="cls-93" x="184.51" y="136.88" width="0.56" height="135.7"></rect><rect class="cls-92" x="185.07" y="136.88" width="0.56" height="135.7"></rect><rect class="cls-91" x="185.64" y="136.88" width="0.56" height="135.7"></rect><rect class="cls-90" x="186.2" y="136.88" width="0.56" height="135.7"></rect><rect class="cls-89" x="186.76" y="136.88" width="0.56" height="135.7"></rect><rect class="cls-88" x="187.33" y="136.88" width="0.56" height="135.7"></rect><rect class="cls-87" x="187.89" y="136.88" width="0.56" height="135.7"></rect><rect class="cls-86" x="188.46" y="136.88" width="0.56" height="135.7"></rect><rect class="cls-85" x="189.02" y="136.88" width="0.56" height="135.7"></rect><rect class="cls-84" x="189.58" y="136.88" width="0.56" height="135.7"></rect><rect class="cls-83" x="190.15" y="136.88" width="0.56" height="135.7"></rect><rect class="cls-82" x="190.71" y="136.88" width="0.56" height="135.7"></rect><rect class="cls-81" x="191.28" y="136.88" width="0.56" height="135.7"></rect><rect class="cls-80" x="191.84" y="136.88" width="0.56" height="135.7"></rect><rect class="cls-79" x="192.4" y="136.88" width="0.56" height="135.7"></rect><rect class="cls-78" x="192.97" y="136.88" width="0.56" height="135.7"></rect><rect class="cls-77" x="193.53" y="136.88" width="0.56" height="135.7"></rect><rect class="cls-76" x="194.09" y="136.88" width="0.56" height="135.7"></rect><rect class="cls-75" x="194.66" y="136.88" width="0.56" height="135.7"></rect><rect class="cls-74" x="195.22" y="136.88" width="0.56" height="135.7"></rect><rect class="cls-73" x="195.79" y="136.88" width="0.56" height="135.7"></rect><rect class="cls-72" x="196.35" y="136.88" width="0.56" height="135.7"></rect><rect class="cls-71" x="196.91" y="136.88" width="0.56" height="135.7"></rect><rect class="cls-70" x="197.48" y="136.88" width="0.56" height="135.7"></rect><rect class="cls-69" x="198.04" y="136.88" width="0.56" height="135.7"></rect><rect class="cls-68" x="198.61" y="136.88" width="0.56" height="135.7"></rect><rect class="cls-67" x="199.17" y="136.88" width="0.56" height="135.7"></rect><rect class="cls-66" x="199.73" y="136.88" width="0.56" height="135.7"></rect><rect class="cls-65" x="200.3" y="136.88" width="0.56" height="135.7"></rect><rect class="cls-64" x="200.86" y="136.88" width="0.56" height="135.7"></rect><rect class="cls-63" x="201.42" y="136.88" width="0.56" height="135.7"></rect><rect class="cls-62" x="201.99" y="136.88" width="0.56" height="135.7"></rect><rect class="cls-61" x="202.55" y="136.88" width="0.56" height="135.7"></rect><rect class="cls-60" x="203.12" y="136.88" width="0.56" height="135.7"></rect><rect class="cls-59" x="203.68" y="136.88" width="0.56" height="135.7"></rect><rect class="cls-58" x="204.24" y="136.88" width="0.56" height="135.7"></rect><rect class="cls-57" x="204.81" y="136.88" width="0.56" height="135.7"></rect><rect class="cls-56" x="205.37" y="136.88" width="0.56" height="135.7"></rect><rect class="cls-55" x="205.94" y="136.88" width="0.56" height="135.7"></rect><rect class="cls-54" x="206.5" y="136.88" width="0.56" height="135.7"></rect><rect class="cls-53" x="207.06" y="136.88" width="0.56" height="135.7"></rect><rect class="cls-52" x="207.63" y="136.88" width="0.56" height="135.7"></rect><rect class="cls-51" x="208.19" y="136.88" width="0.56" height="135.7"></rect><rect class="cls-50" x="208.75" y="136.88" width="0.56" height="135.7"></rect><rect class="cls-49" x="209.32" y="136.88" width="0.56" height="135.7"></rect><rect class="cls-48" x="209.88" y="136.88" width="0.56" height="135.7"></rect><rect class="cls-47" x="210.45" y="136.88" width="0.56" height="135.7"></rect><rect class="cls-46" x="211.01" y="136.88" width="0.56" height="135.7"></rect><rect class="cls-45" x="211.57" y="136.88" width="0.56" height="135.7"></rect><rect class="cls-44" x="212.14" y="136.88" width="0.56" height="135.7"></rect><rect class="cls-43" x="212.7" y="136.88" width="0.56" height="135.7"></rect><rect class="cls-42" x="213.27" y="136.88" width="0.56" height="135.7"></rect><rect class="cls-41" x="213.83" y="136.88" width="0.56" height="135.7"></rect><rect class="cls-40" x="214.39" y="136.88" width="0.56" height="135.7"></rect><rect class="cls-39" x="214.96" y="136.88" width="0.56" height="135.7"></rect><rect class="cls-38" x="215.52" y="136.88" width="0.56" height="135.7"></rect><rect class="cls-37" x="216.08" y="136.88" width="0.56" height="135.7"></rect><rect class="cls-36" x="216.65" y="136.88" width="0.56" height="135.7"></rect><rect class="cls-35" x="217.21" y="136.88" width="0.56" height="135.7"></rect><rect class="cls-34" x="217.78" y="136.88" width="0.56" height="135.7"></rect><rect class="cls-33" x="218.34" y="136.88" width="0.56" height="135.7"></rect><rect class="cls-32" x="218.9" y="136.88" width="0.56" height="135.7"></rect><rect class="cls-31" x="219.47" y="136.88" width="0.56" height="135.7"></rect><rect class="cls-30" x="220.03" y="136.88" width="0.56" height="135.7"></rect><rect class="cls-29" x="220.6" y="136.88" width="0.56" height="135.7"></rect><rect class="cls-28" x="221.16" y="136.88" width="0.56" height="135.7"></rect><rect class="cls-27" x="221.72" y="136.88" width="0.56" height="135.7"></rect></g></g><path class="cls-22" d="M226.6,274.24c0,7.39-22.59,13.38-50.46,13.38s-50.46-6-50.46-13.38c0-.34-.05-10.19-.05-10.19,2-6.91,24-2.8,50.51-2.8,26,0,47.7-3.67,50.46,3Z"></path><g class="cls-108"><ellipse class="cls-20" cx="176.14" cy="264.55" rx="50.46" ry="13.38"></ellipse></g><ellipse class="cls-20" cx="176.14" cy="263.79" rx="50.46" ry="13.38"></ellipse><g class="cls-109"><path class="cls-22" d="M176.12,273c25.5,0,40.78-5.14,46.17-10.38v-4.26c-7.85-4.69-25.56-8-46.15-8s-38.38,3.28-46.19,8v4.23C135.73,270,150.62,273,176.12,273Z"></path><g class="cls-110"><path class="cls-22" d="M176.12,273c25.5,0,40.78-5.14,46.17-10.38v-4.26c-7.85-4.69-25.56-8-46.15-8s-38.38,3.28-46.19,8v4.23C135.73,270,150.62,273,176.12,273Z"></path></g></g><path class="cls-111" d="M176.12,272.89c-26.37,0-40.68-3.24-46.41-10.5l-.06-.08V183.05a46.47,46.47,0,0,1,92.94,0v79.28l-.1.09C217.3,267.48,202.39,272.89,176.12,272.89ZM130.24,262.1c5.65,7,19.81,10.19,45.88,10.19S216.79,267,222,262.08v-79a45.88,45.88,0,0,0-91.75,0Z"></path><g class="cls-2"><polygon class="cls-22" points="162.49 159.43 189.03 162.28 206.79 171.14 180.26 168.29 162.49 159.43"></polygon><polygon class="cls-112" points="180.26 168.29 183.38 195.3 168.73 213.44 150.97 204.57 147.84 177.57 162.49 159.43 180.26 168.29"></polygon><polygon class="cls-22" points="180.26 168.29 206.79 171.14 209.92 198.15 183.38 195.3 180.26 168.29"></polygon><polygon class="cls-113" points="183.38 195.3 209.92 198.15 195.27 216.28 168.73 213.44 183.38 195.3"></polygon></g><g class="cls-2"><polygon class="cls-114" points="163.61 211.7 149 213.97 161.77 207.29 176.37 205.02 163.61 211.7"></polygon><polygon class="cls-115" points="176.37 205.02 187.34 216.12 185.56 233.9 172.79 240.58 161.82 229.48 163.61 211.7 176.37 205.02"></polygon><polygon class="cls-116" points="172.79 240.58 158.19 242.85 147.21 231.75 161.82 229.48 172.79 240.58"></polygon><polygon class="cls-117" points="161.82 229.48 147.21 231.75 149 213.97 163.61 211.7 161.82 229.48"></polygon></g><g class="cls-118"><path class="cls-22" d="M204.74,257.64c0-3.25-11.26-5.88-25.14-5.88s-25.13,2.63-25.13,5.88c0,1.45,2.25,2.78,6,3.8-5.11.55-8.69,1.8-8.69,3.26,0,2,6.44,3.54,14.38,3.54s14.39-1.58,14.39-3.54a1.55,1.55,0,0,0-.82-1.18C193.54,263.5,204.74,260.88,204.74,257.64Z"></path></g><g class="cls-2"><polygon class="cls-119" points="198.12 238.35 208.43 239.9 199.4 235.23 189.08 233.68 198.12 238.35"></polygon><polygon class="cls-120" points="189.08 233.68 181.38 241.55 182.7 254.09 191.73 258.76 199.44 250.89 198.12 238.35 189.08 233.68"></polygon><polygon class="cls-119" points="191.73 258.76 202.05 260.31 209.75 252.44 199.44 250.89 191.73 258.76"></polygon><polygon class="cls-119" points="199.44 250.89 209.75 252.44 208.43 239.9 198.12 238.35 199.44 250.89"></polygon></g><polygon class="cls-24" points="272.66 141.07 255.68 140.96 255.9 98.7 256.31 98.7 256.09 140.55 272.66 140.66 272.66 141.07"></polygon><polygon class="cls-24" points="283.92 171.54 255.56 171.43 255.56 171.22 255.68 126.84 256.09 126.85 255.98 171.02 283.92 171.12 283.92 171.54"></polygon><rect class="cls-24" x="255.99" y="115.6" width="16.78" height="0.42"></rect><polygon class="cls-15" points="249.54 73.89 388.13 74.27 388.02 98.99 249.43 98.62 249.54 73.89"></polygon><polygon class="cls-112" points="256.12 82.34 378.27 82.6 378.23 90.54 256.09 90.29 256.12 82.34"></polygon><polygon class="cls-121" points="267.74 105.69 406.33 106.06 406.24 126.37 267.65 126 267.74 105.69"></polygon><polygon class="cls-121" points="267.63 132.95 406.22 133.33 406.13 153.64 267.54 153.26 267.63 132.95"></polygon><polygon class="cls-20" points="279.88 160.66 418.48 161.03 418.38 181.35 279.79 180.97 279.88 160.66"></polygon><polygon class="cls-122" points="272.79 111.82 394.94 112.07 394.9 120.02 272.76 119.77 272.79 111.82"></polygon><polygon class="cls-122" points="272.68 139.09 394.83 139.34 394.79 147.28 272.65 147.03 272.68 139.09"></polygon><polygon class="cls-24" points="286.7 166.9 408.85 167.16 408.81 175.1 286.67 174.85 286.7 166.9"></polygon><path class="cls-123" d="M459.31,146.26H437.54v24a1.57,1.57,0,0,1-2.68,1.11L407.47,144H362.93a23.39,23.39,0,0,1-23.39-23.39V49.35A26.45,26.45,0,0,1,366,22.9h86.64a26.45,26.45,0,0,1,26.45,26.45v69.58C478.92,134.07,474.45,146.26,459.31,146.26Z"></path><path class="cls-124" d="M401.43,93a14.63,14.63,0,0,1,.83-5.26,10.67,10.67,0,0,1,2.78-4c1.92-1.86,3.69-3.47,5.3-4.85s3-2.66,4.18-3.86a19.89,19.89,0,0,0,2.73-3.4,6.35,6.35,0,0,0,1-3.35A6.81,6.81,0,0,0,416.12,63,7.64,7.64,0,0,0,410.81,61c-3.23,0-5.69.9-7.37,2.68a10.4,10.4,0,0,0-2.83,6.5l-15.87-1q1.13-10.94,8-16.65t17.73-5.72a30,30,0,0,1,8.91,1.29A21.82,21.82,0,0,1,426.78,52a18.42,18.42,0,0,1,5.05,6.38,19.79,19.79,0,0,1,1.86,8.76,21.92,21.92,0,0,1-.62,5.41,16.84,16.84,0,0,1-2.11,4.8A28.2,28.2,0,0,1,427,82.12a69.3,69.3,0,0,1-6.13,5.31,10.69,10.69,0,0,0-3.2,3.6,8.18,8.18,0,0,0-.82,3.51v3H401.43Zm-1.75,19.79a9.65,9.65,0,0,1,.72-3.71,9.12,9.12,0,0,1,5.05-5,9.92,9.92,0,0,1,7.42,0,9.12,9.12,0,0,1,5.05,5,9.92,9.92,0,0,1,0,7.42,9.12,9.12,0,0,1-5.05,5.05,9.92,9.92,0,0,1-7.42,0,9.12,9.12,0,0,1-5.05-5.05A9.69,9.69,0,0,1,399.68,112.78Z"></path></g></g></svg>